<mxfile host="app.diagrams.net" modified="2024-04-10T14:44:32.574Z" agent="Mozilla/5.0 (Windows NT 10.0; Win64; x64) AppleWebKit/537.36 (KHTML, like Gecko) Chrome/123.0.0.0 Safari/537.36" etag="dxH_pU9SLPQdqtbfwMWo" version="24.2.2" type="device">
  <diagram name="PÃ¡gina-1" id="_f3eByVbSC0FrZjGfUfN">
    <mxGraphModel dx="2876" dy="2283" grid="1" gridSize="10" guides="1" tooltips="1" connect="1" arrows="1" fold="1" page="1" pageScale="1" pageWidth="827" pageHeight="1169" math="0" shadow="0">
      <root>
        <mxCell id="0" />
        <mxCell id="1" parent="0" />
        <mxCell id="hsYlX0iy2CaupKlMKDtS-6" style="edgeStyle=orthogonalEdgeStyle;rounded=0;orthogonalLoop=1;jettySize=auto;html=1;entryX=0;entryY=0.5;entryDx=0;entryDy=0;endArrow=none;endFill=0;" parent="1" source="hsYlX0iy2CaupKlMKDtS-1" target="hsYlX0iy2CaupKlMKDtS-5" edge="1">
          <mxGeometry relative="1" as="geometry" />
        </mxCell>
        <mxCell id="hsYlX0iy2CaupKlMKDtS-13" value="(1,N)" style="edgeLabel;html=1;align=center;verticalAlign=middle;resizable=0;points=[];fontFamily=Helvetica;fontSize=11;fontColor=default;labelBackgroundColor=default;" parent="hsYlX0iy2CaupKlMKDtS-6" vertex="1" connectable="0">
          <mxGeometry x="-0.8571" y="-1" relative="1" as="geometry">
            <mxPoint as="offset" />
          </mxGeometry>
        </mxCell>
        <mxCell id="hsYlX0iy2CaupKlMKDtS-11" style="edgeStyle=orthogonalEdgeStyle;rounded=0;orthogonalLoop=1;jettySize=auto;html=1;entryX=1;entryY=0.5;entryDx=0;entryDy=0;strokeColor=default;align=center;verticalAlign=middle;fontFamily=Helvetica;fontSize=11;fontColor=default;labelBackgroundColor=default;endArrow=none;endFill=0;" parent="1" source="hsYlX0iy2CaupKlMKDtS-1" edge="1">
          <mxGeometry relative="1" as="geometry">
            <mxPoint x="60" y="105" as="targetPoint" />
          </mxGeometry>
        </mxCell>
        <mxCell id="hsYlX0iy2CaupKlMKDtS-15" value="(1,N)" style="edgeLabel;html=1;align=center;verticalAlign=middle;resizable=0;points=[];fontFamily=Helvetica;fontSize=11;fontColor=default;labelBackgroundColor=default;" parent="hsYlX0iy2CaupKlMKDtS-11" vertex="1" connectable="0">
          <mxGeometry x="-0.5831" y="3" relative="1" as="geometry">
            <mxPoint as="offset" />
          </mxGeometry>
        </mxCell>
        <mxCell id="hsYlX0iy2CaupKlMKDtS-17" style="edgeStyle=orthogonalEdgeStyle;rounded=0;orthogonalLoop=1;jettySize=auto;html=1;entryX=1;entryY=0.5;entryDx=0;entryDy=0;strokeColor=default;align=center;verticalAlign=middle;fontFamily=Helvetica;fontSize=11;fontColor=default;labelBackgroundColor=default;endArrow=none;endFill=0;" parent="1" source="hsYlX0iy2CaupKlMKDtS-1" target="hsYlX0iy2CaupKlMKDtS-16" edge="1">
          <mxGeometry relative="1" as="geometry">
            <Array as="points">
              <mxPoint x="200" y="185" />
            </Array>
          </mxGeometry>
        </mxCell>
        <mxCell id="hsYlX0iy2CaupKlMKDtS-21" value="(1,1)" style="edgeLabel;html=1;align=center;verticalAlign=middle;resizable=0;points=[];fontFamily=Helvetica;fontSize=11;fontColor=default;labelBackgroundColor=default;" parent="hsYlX0iy2CaupKlMKDtS-17" vertex="1" connectable="0">
          <mxGeometry x="-0.7486" y="2" relative="1" as="geometry">
            <mxPoint as="offset" />
          </mxGeometry>
        </mxCell>
        <mxCell id="hsYlX0iy2CaupKlMKDtS-1" value="Campeonato&lt;div&gt;&lt;br&gt;&lt;/div&gt;" style="whiteSpace=wrap;html=1;align=center;fillColor=#a0522d;fontColor=#ffffff;strokeColor=#6D1F00;" parent="1" vertex="1">
          <mxGeometry x="150" y="85" width="100" height="40" as="geometry" />
        </mxCell>
        <mxCell id="hsYlX0iy2CaupKlMKDtS-2" value="&lt;div&gt;Patrocinador&lt;/div&gt;" style="whiteSpace=wrap;html=1;align=center;fillColor=#a0522d;fontColor=#ffffff;strokeColor=#6D1F00;" parent="1" vertex="1">
          <mxGeometry x="-200" y="85" width="100" height="40" as="geometry" />
        </mxCell>
        <mxCell id="hsYlX0iy2CaupKlMKDtS-23" style="edgeStyle=orthogonalEdgeStyle;rounded=0;orthogonalLoop=1;jettySize=auto;html=1;entryX=0;entryY=0.5;entryDx=0;entryDy=0;strokeColor=default;align=center;verticalAlign=middle;fontFamily=Helvetica;fontSize=11;fontColor=default;labelBackgroundColor=default;endArrow=none;endFill=0;exitX=1;exitY=0;exitDx=0;exitDy=0;" parent="1" source="hsYlX0iy2CaupKlMKDtS-3" target="hsYlX0iy2CaupKlMKDtS-22" edge="1">
          <mxGeometry relative="1" as="geometry">
            <Array as="points">
              <mxPoint x="640" y="390" />
              <mxPoint x="650" y="390" />
              <mxPoint x="650" y="320" />
            </Array>
          </mxGeometry>
        </mxCell>
        <mxCell id="hsYlX0iy2CaupKlMKDtS-29" value="(1,1)" style="edgeLabel;html=1;align=center;verticalAlign=middle;resizable=0;points=[];fontFamily=Helvetica;fontSize=11;fontColor=default;labelBackgroundColor=default;" parent="hsYlX0iy2CaupKlMKDtS-23" vertex="1" connectable="0">
          <mxGeometry x="-0.7951" y="-1" relative="1" as="geometry">
            <mxPoint as="offset" />
          </mxGeometry>
        </mxCell>
        <mxCell id="hsYlX0iy2CaupKlMKDtS-32" style="edgeStyle=orthogonalEdgeStyle;rounded=0;orthogonalLoop=1;jettySize=auto;html=1;entryX=0;entryY=0.5;entryDx=0;entryDy=0;strokeColor=default;align=center;verticalAlign=middle;fontFamily=Helvetica;fontSize=11;fontColor=default;labelBackgroundColor=default;endArrow=none;endFill=0;exitX=1;exitY=0.75;exitDx=0;exitDy=0;" parent="1" source="hsYlX0iy2CaupKlMKDtS-3" target="hsYlX0iy2CaupKlMKDtS-30" edge="1">
          <mxGeometry relative="1" as="geometry" />
        </mxCell>
        <mxCell id="hsYlX0iy2CaupKlMKDtS-36" value="(1,N)" style="edgeLabel;html=1;align=center;verticalAlign=middle;resizable=0;points=[];fontFamily=Helvetica;fontSize=11;fontColor=default;labelBackgroundColor=default;" parent="hsYlX0iy2CaupKlMKDtS-32" vertex="1" connectable="0">
          <mxGeometry x="-0.8253" relative="1" as="geometry">
            <mxPoint as="offset" />
          </mxGeometry>
        </mxCell>
        <mxCell id="hsYlX0iy2CaupKlMKDtS-38" style="edgeStyle=orthogonalEdgeStyle;rounded=0;orthogonalLoop=1;jettySize=auto;html=1;entryX=0.5;entryY=0;entryDx=0;entryDy=0;strokeColor=default;align=center;verticalAlign=middle;fontFamily=Helvetica;fontSize=11;fontColor=default;labelBackgroundColor=default;endArrow=none;endFill=0;exitX=1;exitY=1;exitDx=0;exitDy=0;" parent="1" source="hsYlX0iy2CaupKlMKDtS-3" target="hsYlX0iy2CaupKlMKDtS-37" edge="1">
          <mxGeometry relative="1" as="geometry" />
        </mxCell>
        <mxCell id="hsYlX0iy2CaupKlMKDtS-42" value="(1,1)" style="edgeLabel;html=1;align=center;verticalAlign=middle;resizable=0;points=[];fontFamily=Helvetica;fontSize=11;fontColor=default;labelBackgroundColor=default;" parent="hsYlX0iy2CaupKlMKDtS-38" vertex="1" connectable="0">
          <mxGeometry x="-0.4038" y="2" relative="1" as="geometry">
            <mxPoint x="-2" y="-62" as="offset" />
          </mxGeometry>
        </mxCell>
        <mxCell id="hsYlX0iy2CaupKlMKDtS-44" style="edgeStyle=orthogonalEdgeStyle;rounded=0;orthogonalLoop=1;jettySize=auto;html=1;entryX=1;entryY=0.5;entryDx=0;entryDy=0;strokeColor=default;align=center;verticalAlign=middle;fontFamily=Helvetica;fontSize=11;fontColor=default;labelBackgroundColor=default;endArrow=none;endFill=0;exitX=0.25;exitY=0;exitDx=0;exitDy=0;" parent="1" source="hsYlX0iy2CaupKlMKDtS-3" target="hsYlX0iy2CaupKlMKDtS-43" edge="1">
          <mxGeometry relative="1" as="geometry" />
        </mxCell>
        <mxCell id="hsYlX0iy2CaupKlMKDtS-49" value="(1,N)" style="edgeLabel;html=1;align=center;verticalAlign=middle;resizable=0;points=[];fontFamily=Helvetica;fontSize=11;fontColor=default;labelBackgroundColor=default;" parent="hsYlX0iy2CaupKlMKDtS-44" vertex="1" connectable="0">
          <mxGeometry x="-0.6529" relative="1" as="geometry">
            <mxPoint as="offset" />
          </mxGeometry>
        </mxCell>
        <mxCell id="hsYlX0iy2CaupKlMKDtS-3" value="&lt;div&gt;Time&lt;/div&gt;" style="whiteSpace=wrap;html=1;align=center;fillColor=#a0522d;fontColor=#ffffff;strokeColor=#6D1F00;" parent="1" vertex="1">
          <mxGeometry x="540" y="380" width="100" height="40" as="geometry" />
        </mxCell>
        <mxCell id="hsYlX0iy2CaupKlMKDtS-53" style="edgeStyle=orthogonalEdgeStyle;rounded=0;orthogonalLoop=1;jettySize=auto;html=1;strokeColor=default;align=center;verticalAlign=middle;fontFamily=Helvetica;fontSize=11;fontColor=default;labelBackgroundColor=default;endArrow=none;endFill=0;exitX=0;exitY=0.5;exitDx=0;exitDy=0;" parent="1" source="hsYlX0iy2CaupKlMKDtS-4" target="hsYlX0iy2CaupKlMKDtS-52" edge="1">
          <mxGeometry relative="1" as="geometry">
            <mxPoint x="-120" y="400" as="sourcePoint" />
          </mxGeometry>
        </mxCell>
        <mxCell id="hsYlX0iy2CaupKlMKDtS-55" value="(1,N)" style="edgeLabel;html=1;align=center;verticalAlign=middle;resizable=0;points=[];fontFamily=Helvetica;fontSize=11;fontColor=default;labelBackgroundColor=default;" parent="hsYlX0iy2CaupKlMKDtS-53" vertex="1" connectable="0">
          <mxGeometry x="-0.5418" y="-1" relative="1" as="geometry">
            <mxPoint as="offset" />
          </mxGeometry>
        </mxCell>
        <mxCell id="hsYlX0iy2CaupKlMKDtS-4" value="&lt;div&gt;Partida&lt;/div&gt;" style="whiteSpace=wrap;html=1;align=center;fillColor=#a0522d;fontColor=#ffffff;strokeColor=#6D1F00;" parent="1" vertex="1">
          <mxGeometry x="-85" y="380" width="100" height="40" as="geometry" />
        </mxCell>
        <mxCell id="hsYlX0iy2CaupKlMKDtS-8" style="edgeStyle=orthogonalEdgeStyle;rounded=0;orthogonalLoop=1;jettySize=auto;html=1;entryX=0.5;entryY=0;entryDx=0;entryDy=0;strokeColor=default;align=center;verticalAlign=middle;fontFamily=Helvetica;fontSize=11;fontColor=default;labelBackgroundColor=default;endArrow=none;endFill=0;" parent="1" source="hsYlX0iy2CaupKlMKDtS-5" target="hsYlX0iy2CaupKlMKDtS-3" edge="1">
          <mxGeometry relative="1" as="geometry" />
        </mxCell>
        <mxCell id="hsYlX0iy2CaupKlMKDtS-9" value="(1,N)" style="edgeLabel;html=1;align=center;verticalAlign=middle;resizable=0;points=[];fontFamily=Helvetica;fontSize=11;fontColor=default;labelBackgroundColor=default;" parent="hsYlX0iy2CaupKlMKDtS-8" vertex="1" connectable="0">
          <mxGeometry x="0.6138" y="2" relative="1" as="geometry">
            <mxPoint as="offset" />
          </mxGeometry>
        </mxCell>
        <mxCell id="hsYlX0iy2CaupKlMKDtS-5" value="Possui" style="shape=rhombus;perimeter=rhombusPerimeter;html=1;align=center;fillColor=#331A00;fontColor=#FFFFFF;" parent="1" vertex="1">
          <mxGeometry x="550" y="80" width="80" height="50" as="geometry" />
        </mxCell>
        <mxCell id="hsYlX0iy2CaupKlMKDtS-12" style="edgeStyle=orthogonalEdgeStyle;rounded=0;orthogonalLoop=1;jettySize=auto;html=1;entryX=1;entryY=0.5;entryDx=0;entryDy=0;strokeColor=default;align=center;verticalAlign=middle;fontFamily=Helvetica;fontSize=11;fontColor=default;labelBackgroundColor=default;endArrow=none;endFill=0;exitX=0;exitY=0.5;exitDx=0;exitDy=0;" parent="1" source="hsYlX0iy2CaupKlMKDtS-10" target="hsYlX0iy2CaupKlMKDtS-2" edge="1">
          <mxGeometry relative="1" as="geometry">
            <mxPoint x="-20" y="105" as="sourcePoint" />
          </mxGeometry>
        </mxCell>
        <mxCell id="hsYlX0iy2CaupKlMKDtS-14" value="(1,N)" style="edgeLabel;html=1;align=center;verticalAlign=middle;resizable=0;points=[];fontFamily=Helvetica;fontSize=11;fontColor=default;labelBackgroundColor=default;" parent="hsYlX0iy2CaupKlMKDtS-12" vertex="1" connectable="0">
          <mxGeometry x="0.5121" y="1" relative="1" as="geometry">
            <mxPoint as="offset" />
          </mxGeometry>
        </mxCell>
        <mxCell id="hsYlX0iy2CaupKlMKDtS-10" value="Patrocina" style="shape=rhombus;perimeter=rhombusPerimeter;html=1;align=center;fillColor=#331A00;fontColor=#FFFFFF;" parent="1" vertex="1">
          <mxGeometry x="-11" y="80" width="80" height="50" as="geometry" />
        </mxCell>
        <mxCell id="sAkLU7JTGPbsaVfbzlbN-2" style="edgeStyle=orthogonalEdgeStyle;rounded=0;orthogonalLoop=1;jettySize=auto;html=1;entryX=0.5;entryY=0;entryDx=0;entryDy=0;endArrow=none;endFill=0;" edge="1" parent="1" source="hsYlX0iy2CaupKlMKDtS-16" target="hsYlX0iy2CaupKlMKDtS-4">
          <mxGeometry relative="1" as="geometry" />
        </mxCell>
        <mxCell id="sAkLU7JTGPbsaVfbzlbN-3" value="(1,N)" style="edgeLabel;html=1;align=center;verticalAlign=middle;resizable=0;points=[];" vertex="1" connectable="0" parent="sAkLU7JTGPbsaVfbzlbN-2">
          <mxGeometry x="0.7949" y="1" relative="1" as="geometry">
            <mxPoint as="offset" />
          </mxGeometry>
        </mxCell>
        <mxCell id="hsYlX0iy2CaupKlMKDtS-16" value="Possui" style="shape=rhombus;perimeter=rhombusPerimeter;html=1;align=center;fillColor=#331A00;fontColor=#FFFFFF;" parent="1" vertex="1">
          <mxGeometry x="-75" y="160" width="80" height="50" as="geometry" />
        </mxCell>
        <mxCell id="hsYlX0iy2CaupKlMKDtS-25" style="edgeStyle=orthogonalEdgeStyle;rounded=0;orthogonalLoop=1;jettySize=auto;html=1;entryX=0;entryY=0.5;entryDx=0;entryDy=0;strokeColor=default;align=center;verticalAlign=middle;fontFamily=Helvetica;fontSize=11;fontColor=default;labelBackgroundColor=default;endArrow=none;endFill=0;" parent="1" source="hsYlX0iy2CaupKlMKDtS-22" target="hsYlX0iy2CaupKlMKDtS-24" edge="1">
          <mxGeometry relative="1" as="geometry" />
        </mxCell>
        <mxCell id="hsYlX0iy2CaupKlMKDtS-28" value="(1,N)" style="edgeLabel;html=1;align=center;verticalAlign=middle;resizable=0;points=[];fontFamily=Helvetica;fontSize=11;fontColor=default;labelBackgroundColor=default;" parent="hsYlX0iy2CaupKlMKDtS-25" vertex="1" connectable="0">
          <mxGeometry x="0.5197" y="-2" relative="1" as="geometry">
            <mxPoint as="offset" />
          </mxGeometry>
        </mxCell>
        <mxCell id="hsYlX0iy2CaupKlMKDtS-22" value="Possui" style="shape=rhombus;perimeter=rhombusPerimeter;html=1;align=center;fillColor=#331A00;fontColor=#FFFFFF;" parent="1" vertex="1">
          <mxGeometry x="890" y="295" width="80" height="50" as="geometry" />
        </mxCell>
        <mxCell id="hsYlX0iy2CaupKlMKDtS-24" value="&lt;div&gt;Jogador&lt;/div&gt;" style="whiteSpace=wrap;html=1;align=center;fillColor=#a0522d;fontColor=#ffffff;strokeColor=#6D1F00;" parent="1" vertex="1">
          <mxGeometry x="1110" y="300" width="100" height="40" as="geometry" />
        </mxCell>
        <mxCell id="hsYlX0iy2CaupKlMKDtS-34" style="edgeStyle=orthogonalEdgeStyle;rounded=0;orthogonalLoop=1;jettySize=auto;html=1;entryX=0;entryY=0.5;entryDx=0;entryDy=0;strokeColor=default;align=center;verticalAlign=middle;fontFamily=Helvetica;fontSize=11;fontColor=default;labelBackgroundColor=default;endArrow=none;endFill=0;exitX=1;exitY=0.5;exitDx=0;exitDy=0;" parent="1" source="hsYlX0iy2CaupKlMKDtS-30" target="hsYlX0iy2CaupKlMKDtS-33" edge="1">
          <mxGeometry relative="1" as="geometry">
            <mxPoint x="860" y="510" as="sourcePoint" />
          </mxGeometry>
        </mxCell>
        <mxCell id="hsYlX0iy2CaupKlMKDtS-35" value="(1,1)" style="edgeLabel;html=1;align=center;verticalAlign=middle;resizable=0;points=[];fontFamily=Helvetica;fontSize=11;fontColor=default;labelBackgroundColor=default;" parent="hsYlX0iy2CaupKlMKDtS-34" vertex="1" connectable="0">
          <mxGeometry x="0.8213" y="2" relative="1" as="geometry">
            <mxPoint x="-7" y="2" as="offset" />
          </mxGeometry>
        </mxCell>
        <mxCell id="hsYlX0iy2CaupKlMKDtS-30" value="Possui" style="shape=rhombus;perimeter=rhombusPerimeter;html=1;align=center;fillColor=#331A00;fontColor=#FFFFFF;" parent="1" vertex="1">
          <mxGeometry x="860" y="440" width="80" height="50" as="geometry" />
        </mxCell>
        <mxCell id="MRLTVpT2A0XdB1xVP8XQ-61" style="edgeStyle=none;rounded=0;orthogonalLoop=1;jettySize=auto;html=1;entryX=0;entryY=0.5;entryDx=0;entryDy=0;strokeColor=default;align=center;verticalAlign=middle;fontFamily=Helvetica;fontSize=11;fontColor=default;labelBackgroundColor=default;endArrow=none;endFill=0;" parent="1" source="hsYlX0iy2CaupKlMKDtS-33" target="MRLTVpT2A0XdB1xVP8XQ-60" edge="1">
          <mxGeometry relative="1" as="geometry" />
        </mxCell>
        <mxCell id="hsYlX0iy2CaupKlMKDtS-33" value="&lt;div&gt;EstÃ¡dio&lt;/div&gt;" style="whiteSpace=wrap;html=1;align=center;fillColor=#a0522d;fontColor=#ffffff;strokeColor=#6D1F00;" parent="1" vertex="1">
          <mxGeometry x="1110" y="600" width="100" height="40" as="geometry" />
        </mxCell>
        <mxCell id="hsYlX0iy2CaupKlMKDtS-40" style="edgeStyle=orthogonalEdgeStyle;rounded=0;orthogonalLoop=1;jettySize=auto;html=1;entryX=0.5;entryY=0;entryDx=0;entryDy=0;strokeColor=default;align=center;verticalAlign=middle;fontFamily=Helvetica;fontSize=11;fontColor=default;labelBackgroundColor=default;endArrow=none;endFill=0;" parent="1" source="hsYlX0iy2CaupKlMKDtS-37" target="hsYlX0iy2CaupKlMKDtS-39" edge="1">
          <mxGeometry relative="1" as="geometry">
            <Array as="points">
              <mxPoint x="740" y="730" />
              <mxPoint x="740" y="730" />
            </Array>
          </mxGeometry>
        </mxCell>
        <mxCell id="hsYlX0iy2CaupKlMKDtS-41" value="(1,1)" style="edgeLabel;html=1;align=center;verticalAlign=middle;resizable=0;points=[];fontFamily=Helvetica;fontSize=11;fontColor=default;labelBackgroundColor=default;" parent="hsYlX0iy2CaupKlMKDtS-40" vertex="1" connectable="0">
          <mxGeometry x="0.6536" relative="1" as="geometry">
            <mxPoint as="offset" />
          </mxGeometry>
        </mxCell>
        <mxCell id="hsYlX0iy2CaupKlMKDtS-37" value="Possui" style="shape=rhombus;perimeter=rhombusPerimeter;html=1;align=center;fillColor=#331A00;fontColor=#FFFFFF;" parent="1" vertex="1">
          <mxGeometry x="700" y="584" width="80" height="50" as="geometry" />
        </mxCell>
        <mxCell id="MRLTVpT2A0XdB1xVP8XQ-64" style="edgeStyle=none;rounded=0;orthogonalLoop=1;jettySize=auto;html=1;strokeColor=default;align=center;verticalAlign=middle;fontFamily=Helvetica;fontSize=11;fontColor=default;labelBackgroundColor=default;endArrow=none;endFill=0;" parent="1" source="hsYlX0iy2CaupKlMKDtS-39" target="MRLTVpT2A0XdB1xVP8XQ-63" edge="1">
          <mxGeometry relative="1" as="geometry" />
        </mxCell>
        <mxCell id="hsYlX0iy2CaupKlMKDtS-39" value="TÃ©cnico" style="whiteSpace=wrap;html=1;align=center;fillColor=#a0522d;fontColor=#ffffff;strokeColor=#6D1F00;" parent="1" vertex="1">
          <mxGeometry x="690" y="830" width="100" height="40" as="geometry" />
        </mxCell>
        <mxCell id="hsYlX0iy2CaupKlMKDtS-45" style="edgeStyle=orthogonalEdgeStyle;rounded=0;orthogonalLoop=1;jettySize=auto;html=1;entryX=1;entryY=0.5;entryDx=0;entryDy=0;strokeColor=default;align=center;verticalAlign=middle;fontFamily=Helvetica;fontSize=11;fontColor=default;labelBackgroundColor=default;endArrow=none;endFill=0;" parent="1" source="hsYlX0iy2CaupKlMKDtS-43" target="hsYlX0iy2CaupKlMKDtS-4" edge="1">
          <mxGeometry relative="1" as="geometry" />
        </mxCell>
        <mxCell id="hsYlX0iy2CaupKlMKDtS-47" value="(1,N)" style="edgeLabel;html=1;align=center;verticalAlign=middle;resizable=0;points=[];fontFamily=Helvetica;fontSize=11;fontColor=default;labelBackgroundColor=default;" parent="hsYlX0iy2CaupKlMKDtS-45" vertex="1" connectable="0">
          <mxGeometry x="0.6499" y="1" relative="1" as="geometry">
            <mxPoint as="offset" />
          </mxGeometry>
        </mxCell>
        <mxCell id="hsYlX0iy2CaupKlMKDtS-43" value="Joga" style="shape=rhombus;perimeter=rhombusPerimeter;html=1;align=center;fillColor=#331A00;fontColor=#FFFFFF;" parent="1" vertex="1">
          <mxGeometry x="250" y="250" width="80" height="50" as="geometry" />
        </mxCell>
        <mxCell id="hsYlX0iy2CaupKlMKDtS-58" style="edgeStyle=orthogonalEdgeStyle;rounded=0;orthogonalLoop=1;jettySize=auto;html=1;strokeColor=default;align=center;verticalAlign=middle;fontFamily=Helvetica;fontSize=11;fontColor=default;labelBackgroundColor=default;endArrow=none;endFill=0;exitX=0.5;exitY=1;exitDx=0;exitDy=0;" parent="1" source="hsYlX0iy2CaupKlMKDtS-51" target="hsYlX0iy2CaupKlMKDtS-57" edge="1">
          <mxGeometry relative="1" as="geometry" />
        </mxCell>
        <mxCell id="hsYlX0iy2CaupKlMKDtS-61" value="(1,1)" style="edgeLabel;html=1;align=center;verticalAlign=middle;resizable=0;points=[];fontFamily=Helvetica;fontSize=11;fontColor=default;labelBackgroundColor=default;" parent="hsYlX0iy2CaupKlMKDtS-58" vertex="1" connectable="0">
          <mxGeometry x="-0.1172" relative="1" as="geometry">
            <mxPoint as="offset" />
          </mxGeometry>
        </mxCell>
        <mxCell id="hsYlX0iy2CaupKlMKDtS-51" value="&lt;div&gt;Time de Arbitragem&lt;/div&gt;" style="whiteSpace=wrap;html=1;align=center;fillColor=#a0522d;fontColor=#ffffff;strokeColor=#6D1F00;" parent="1" vertex="1">
          <mxGeometry x="-423" y="620" width="100" height="40" as="geometry" />
        </mxCell>
        <mxCell id="hsYlX0iy2CaupKlMKDtS-54" style="edgeStyle=orthogonalEdgeStyle;rounded=0;orthogonalLoop=1;jettySize=auto;html=1;entryX=0.5;entryY=0;entryDx=0;entryDy=0;strokeColor=default;align=center;verticalAlign=middle;fontFamily=Helvetica;fontSize=11;fontColor=default;labelBackgroundColor=default;endArrow=none;endFill=0;" parent="1" source="hsYlX0iy2CaupKlMKDtS-52" target="hsYlX0iy2CaupKlMKDtS-51" edge="1">
          <mxGeometry relative="1" as="geometry" />
        </mxCell>
        <mxCell id="hsYlX0iy2CaupKlMKDtS-56" value="(1,1)" style="edgeLabel;html=1;align=center;verticalAlign=middle;resizable=0;points=[];fontFamily=Helvetica;fontSize=11;fontColor=default;labelBackgroundColor=default;" parent="hsYlX0iy2CaupKlMKDtS-54" vertex="1" connectable="0">
          <mxGeometry x="0.577" relative="1" as="geometry">
            <mxPoint as="offset" />
          </mxGeometry>
        </mxCell>
        <mxCell id="hsYlX0iy2CaupKlMKDtS-52" value="Apita" style="shape=rhombus;perimeter=rhombusPerimeter;html=1;align=center;fillColor=#331A00;fontColor=#FFFFFF;" parent="1" vertex="1">
          <mxGeometry x="-413" y="375" width="80" height="50" as="geometry" />
        </mxCell>
        <mxCell id="hsYlX0iy2CaupKlMKDtS-60" style="edgeStyle=orthogonalEdgeStyle;rounded=0;orthogonalLoop=1;jettySize=auto;html=1;entryX=0.5;entryY=0;entryDx=0;entryDy=0;strokeColor=default;align=center;verticalAlign=middle;fontFamily=Helvetica;fontSize=11;fontColor=default;labelBackgroundColor=default;endArrow=none;endFill=0;exitX=0.5;exitY=1;exitDx=0;exitDy=0;" parent="1" source="hsYlX0iy2CaupKlMKDtS-57" target="hsYlX0iy2CaupKlMKDtS-59" edge="1">
          <mxGeometry relative="1" as="geometry" />
        </mxCell>
        <mxCell id="hsYlX0iy2CaupKlMKDtS-62" value="(1,N)" style="edgeLabel;html=1;align=center;verticalAlign=middle;resizable=0;points=[];fontFamily=Helvetica;fontSize=11;fontColor=default;labelBackgroundColor=default;" parent="hsYlX0iy2CaupKlMKDtS-60" vertex="1" connectable="0">
          <mxGeometry x="0.4562" y="3" relative="1" as="geometry">
            <mxPoint as="offset" />
          </mxGeometry>
        </mxCell>
        <mxCell id="hsYlX0iy2CaupKlMKDtS-57" value="Possui" style="shape=rhombus;perimeter=rhombusPerimeter;html=1;align=center;fillColor=#331A00;fontColor=#FFFFFF;" parent="1" vertex="1">
          <mxGeometry x="-413" y="725" width="80" height="50" as="geometry" />
        </mxCell>
        <mxCell id="MRLTVpT2A0XdB1xVP8XQ-77" style="edgeStyle=none;rounded=0;orthogonalLoop=1;jettySize=auto;html=1;strokeColor=default;align=center;verticalAlign=middle;fontFamily=Helvetica;fontSize=11;fontColor=default;labelBackgroundColor=default;endArrow=none;endFill=0;" parent="1" source="hsYlX0iy2CaupKlMKDtS-59" target="MRLTVpT2A0XdB1xVP8XQ-76" edge="1">
          <mxGeometry relative="1" as="geometry" />
        </mxCell>
        <mxCell id="hsYlX0iy2CaupKlMKDtS-59" value="Ãrbitro" style="whiteSpace=wrap;html=1;align=center;fillColor=#a0522d;fontColor=#ffffff;strokeColor=#6D1F00;" parent="1" vertex="1">
          <mxGeometry x="-423" y="830" width="100" height="40" as="geometry" />
        </mxCell>
        <mxCell id="MRLTVpT2A0XdB1xVP8XQ-11" style="edgeStyle=none;rounded=0;orthogonalLoop=1;jettySize=auto;html=1;strokeColor=default;align=center;verticalAlign=middle;fontFamily=Helvetica;fontSize=11;fontColor=default;labelBackgroundColor=default;endArrow=none;endFill=0;" parent="1" source="6Kq15B5jahSZle6u0ZmD-1" target="hsYlX0iy2CaupKlMKDtS-1" edge="1">
          <mxGeometry relative="1" as="geometry" />
        </mxCell>
        <mxCell id="6Kq15B5jahSZle6u0ZmD-1" value="CÃ³digo" style="ellipse;whiteSpace=wrap;html=1;align=center;fontStyle=4;fontFamily=Helvetica;fontSize=11;fontColor=default;labelBackgroundColor=default;" parent="1" vertex="1">
          <mxGeometry x="90" y="-100" width="70" height="40" as="geometry" />
        </mxCell>
        <mxCell id="MRLTVpT2A0XdB1xVP8XQ-9" style="edgeStyle=none;rounded=0;orthogonalLoop=1;jettySize=auto;html=1;strokeColor=default;align=center;verticalAlign=middle;fontFamily=Helvetica;fontSize=11;fontColor=default;labelBackgroundColor=default;endArrow=none;endFill=0;" parent="1" source="6Kq15B5jahSZle6u0ZmD-3" target="hsYlX0iy2CaupKlMKDtS-1" edge="1">
          <mxGeometry relative="1" as="geometry" />
        </mxCell>
        <mxCell id="6Kq15B5jahSZle6u0ZmD-3" value="Nome" style="ellipse;whiteSpace=wrap;html=1;align=center;fontFamily=Helvetica;fontSize=11;fontColor=default;labelBackgroundColor=default;" parent="1" vertex="1">
          <mxGeometry x="190" y="-120" width="80" height="40" as="geometry" />
        </mxCell>
        <mxCell id="MRLTVpT2A0XdB1xVP8XQ-10" style="edgeStyle=none;rounded=0;orthogonalLoop=1;jettySize=auto;html=1;strokeColor=default;align=center;verticalAlign=middle;fontFamily=Helvetica;fontSize=11;fontColor=default;labelBackgroundColor=default;endArrow=none;endFill=0;" parent="1" source="6Kq15B5jahSZle6u0ZmD-4" target="hsYlX0iy2CaupKlMKDtS-1" edge="1">
          <mxGeometry relative="1" as="geometry" />
        </mxCell>
        <mxCell id="6Kq15B5jahSZle6u0ZmD-4" value="PremiaÃ§Ã£o" style="ellipse;whiteSpace=wrap;html=1;align=center;fontFamily=Helvetica;fontSize=11;fontColor=default;labelBackgroundColor=default;" parent="1" vertex="1">
          <mxGeometry x="294" y="-90" width="80" height="40" as="geometry" />
        </mxCell>
        <mxCell id="MRLTVpT2A0XdB1xVP8XQ-8" style="rounded=0;orthogonalLoop=1;jettySize=auto;html=1;strokeColor=default;align=center;verticalAlign=middle;fontFamily=Helvetica;fontSize=11;fontColor=default;labelBackgroundColor=default;endArrow=none;endFill=0;" parent="1" source="9ZdzSS4iJ6143iIZLoQT-4" target="hsYlX0iy2CaupKlMKDtS-1" edge="1">
          <mxGeometry relative="1" as="geometry" />
        </mxCell>
        <mxCell id="9ZdzSS4iJ6143iIZLoQT-4" value="Temporada" style="ellipse;whiteSpace=wrap;html=1;align=center;fontFamily=Helvetica;fontSize=11;fontColor=default;labelBackgroundColor=default;" parent="1" vertex="1">
          <mxGeometry x="40" y="-40" width="80" height="40" as="geometry" />
        </mxCell>
        <mxCell id="MRLTVpT2A0XdB1xVP8XQ-6" style="edgeStyle=orthogonalEdgeStyle;rounded=0;orthogonalLoop=1;jettySize=auto;html=1;strokeColor=none;align=center;verticalAlign=middle;fontFamily=Helvetica;fontSize=11;fontColor=default;labelBackgroundColor=default;endArrow=none;endFill=0;" parent="1" target="hsYlX0iy2CaupKlMKDtS-1" edge="1">
          <mxGeometry relative="1" as="geometry">
            <mxPoint x="350" y="-10" as="sourcePoint" />
          </mxGeometry>
        </mxCell>
        <mxCell id="MRLTVpT2A0XdB1xVP8XQ-13" value="CÃ³digo" style="ellipse;whiteSpace=wrap;html=1;align=center;fontStyle=4;fontFamily=Helvetica;fontSize=11;fontColor=default;labelBackgroundColor=default;" parent="1" vertex="1">
          <mxGeometry x="-390" y="70" width="70" height="40" as="geometry" />
        </mxCell>
        <mxCell id="MRLTVpT2A0XdB1xVP8XQ-15" value="Nome" style="ellipse;whiteSpace=wrap;html=1;align=center;fontFamily=Helvetica;fontSize=11;fontColor=default;labelBackgroundColor=default;" parent="1" vertex="1">
          <mxGeometry x="-395" width="80" height="40" as="geometry" />
        </mxCell>
        <mxCell id="MRLTVpT2A0XdB1xVP8XQ-21" style="edgeStyle=none;rounded=0;orthogonalLoop=1;jettySize=auto;html=1;strokeColor=default;align=center;verticalAlign=middle;fontFamily=Helvetica;fontSize=11;fontColor=default;labelBackgroundColor=default;endArrow=none;endFill=0;" parent="1" source="MRLTVpT2A0XdB1xVP8XQ-17" target="hsYlX0iy2CaupKlMKDtS-2" edge="1">
          <mxGeometry relative="1" as="geometry" />
        </mxCell>
        <mxCell id="MRLTVpT2A0XdB1xVP8XQ-17" value="Cota" style="ellipse;whiteSpace=wrap;html=1;align=center;fontFamily=Helvetica;fontSize=11;fontColor=default;labelBackgroundColor=default;" parent="1" vertex="1">
          <mxGeometry x="-390" y="140" width="80" height="40" as="geometry" />
        </mxCell>
        <mxCell id="MRLTVpT2A0XdB1xVP8XQ-19" style="edgeStyle=none;rounded=0;orthogonalLoop=1;jettySize=auto;html=1;entryX=0.028;entryY=0.401;entryDx=0;entryDy=0;entryPerimeter=0;strokeColor=default;align=center;verticalAlign=middle;fontFamily=Helvetica;fontSize=11;fontColor=default;labelBackgroundColor=default;endArrow=none;endFill=0;" parent="1" source="MRLTVpT2A0XdB1xVP8XQ-15" target="hsYlX0iy2CaupKlMKDtS-2" edge="1">
          <mxGeometry relative="1" as="geometry" />
        </mxCell>
        <mxCell id="MRLTVpT2A0XdB1xVP8XQ-20" style="edgeStyle=none;rounded=0;orthogonalLoop=1;jettySize=auto;html=1;entryX=0.022;entryY=0.643;entryDx=0;entryDy=0;entryPerimeter=0;strokeColor=default;align=center;verticalAlign=middle;fontFamily=Helvetica;fontSize=11;fontColor=default;labelBackgroundColor=default;endArrow=none;endFill=0;" parent="1" source="MRLTVpT2A0XdB1xVP8XQ-13" target="hsYlX0iy2CaupKlMKDtS-2" edge="1">
          <mxGeometry relative="1" as="geometry" />
        </mxCell>
        <mxCell id="MRLTVpT2A0XdB1xVP8XQ-31" style="edgeStyle=none;rounded=0;orthogonalLoop=1;jettySize=auto;html=1;strokeColor=default;align=center;verticalAlign=middle;fontFamily=Helvetica;fontSize=11;fontColor=default;labelBackgroundColor=default;endArrow=none;endFill=0;" parent="1" source="MRLTVpT2A0XdB1xVP8XQ-22" target="hsYlX0iy2CaupKlMKDtS-24" edge="1">
          <mxGeometry relative="1" as="geometry" />
        </mxCell>
        <mxCell id="MRLTVpT2A0XdB1xVP8XQ-22" value="CÃ³digo" style="ellipse;whiteSpace=wrap;html=1;align=center;fontStyle=4;fontFamily=Helvetica;fontSize=11;fontColor=default;labelBackgroundColor=default;" parent="1" vertex="1">
          <mxGeometry x="1000" y="120" width="70" height="40" as="geometry" />
        </mxCell>
        <mxCell id="MRLTVpT2A0XdB1xVP8XQ-38" style="edgeStyle=none;rounded=0;orthogonalLoop=1;jettySize=auto;html=1;entryX=0;entryY=0.25;entryDx=0;entryDy=0;strokeColor=default;align=center;verticalAlign=middle;fontFamily=Helvetica;fontSize=11;fontColor=default;labelBackgroundColor=default;endArrow=none;endFill=0;" parent="1" source="MRLTVpT2A0XdB1xVP8XQ-23" target="hsYlX0iy2CaupKlMKDtS-24" edge="1">
          <mxGeometry relative="1" as="geometry" />
        </mxCell>
        <mxCell id="MRLTVpT2A0XdB1xVP8XQ-23" value="Nome" style="ellipse;whiteSpace=wrap;html=1;align=center;fontFamily=Helvetica;fontSize=11;fontColor=default;labelBackgroundColor=default;" parent="1" vertex="1">
          <mxGeometry x="950" y="185" width="80" height="40" as="geometry" />
        </mxCell>
        <mxCell id="MRLTVpT2A0XdB1xVP8XQ-39" style="edgeStyle=none;rounded=0;orthogonalLoop=1;jettySize=auto;html=1;strokeColor=default;align=center;verticalAlign=middle;fontFamily=Helvetica;fontSize=11;fontColor=default;labelBackgroundColor=default;endArrow=none;endFill=0;" parent="1" source="MRLTVpT2A0XdB1xVP8XQ-24" target="hsYlX0iy2CaupKlMKDtS-24" edge="1">
          <mxGeometry relative="1" as="geometry" />
        </mxCell>
        <mxCell id="MRLTVpT2A0XdB1xVP8XQ-24" value="DataNasc" style="ellipse;whiteSpace=wrap;html=1;align=center;fontFamily=Helvetica;fontSize=11;fontColor=default;labelBackgroundColor=default;" parent="1" vertex="1">
          <mxGeometry x="1311" y="370" width="80" height="40" as="geometry" />
        </mxCell>
        <mxCell id="MRLTVpT2A0XdB1xVP8XQ-34" style="edgeStyle=none;rounded=0;orthogonalLoop=1;jettySize=auto;html=1;strokeColor=default;align=center;verticalAlign=middle;fontFamily=Helvetica;fontSize=11;fontColor=default;labelBackgroundColor=default;endArrow=none;endFill=0;" parent="1" source="MRLTVpT2A0XdB1xVP8XQ-25" target="hsYlX0iy2CaupKlMKDtS-24" edge="1">
          <mxGeometry relative="1" as="geometry" />
        </mxCell>
        <mxCell id="MRLTVpT2A0XdB1xVP8XQ-25" value="PosiÃ§Ã£o" style="ellipse;whiteSpace=wrap;html=1;align=center;fontFamily=Helvetica;fontSize=11;fontColor=default;labelBackgroundColor=default;" parent="1" vertex="1">
          <mxGeometry x="1260" y="110" width="80" height="40" as="geometry" />
        </mxCell>
        <mxCell id="MRLTVpT2A0XdB1xVP8XQ-36" style="edgeStyle=none;rounded=0;orthogonalLoop=1;jettySize=auto;html=1;entryX=1;entryY=0.75;entryDx=0;entryDy=0;strokeColor=default;align=center;verticalAlign=middle;fontFamily=Helvetica;fontSize=11;fontColor=default;labelBackgroundColor=default;endArrow=none;endFill=0;" parent="1" source="MRLTVpT2A0XdB1xVP8XQ-26" target="hsYlX0iy2CaupKlMKDtS-24" edge="1">
          <mxGeometry relative="1" as="geometry" />
        </mxCell>
        <mxCell id="MRLTVpT2A0XdB1xVP8XQ-26" value="C. Amarelos" style="ellipse;whiteSpace=wrap;html=1;align=center;fontFamily=Helvetica;fontSize=11;fontColor=default;labelBackgroundColor=default;" parent="1" vertex="1">
          <mxGeometry x="1370" y="250" width="80" height="40" as="geometry" />
        </mxCell>
        <mxCell id="MRLTVpT2A0XdB1xVP8XQ-27" value="C. Vermelhos" style="ellipse;whiteSpace=wrap;html=1;align=center;fontFamily=Helvetica;fontSize=11;fontColor=default;labelBackgroundColor=default;" parent="1" vertex="1">
          <mxGeometry x="1380" y="320" width="80" height="40" as="geometry" />
        </mxCell>
        <mxCell id="MRLTVpT2A0XdB1xVP8XQ-32" style="edgeStyle=none;rounded=0;orthogonalLoop=1;jettySize=auto;html=1;strokeColor=default;align=center;verticalAlign=middle;fontFamily=Helvetica;fontSize=11;fontColor=default;labelBackgroundColor=default;endArrow=none;endFill=0;" parent="1" source="MRLTVpT2A0XdB1xVP8XQ-28" target="hsYlX0iy2CaupKlMKDtS-24" edge="1">
          <mxGeometry relative="1" as="geometry" />
        </mxCell>
        <mxCell id="MRLTVpT2A0XdB1xVP8XQ-28" value="Gols pro" style="ellipse;whiteSpace=wrap;html=1;align=center;fontFamily=Helvetica;fontSize=11;fontColor=default;labelBackgroundColor=default;" parent="1" vertex="1">
          <mxGeometry x="1130" y="100" width="80" height="40" as="geometry" />
        </mxCell>
        <mxCell id="MRLTVpT2A0XdB1xVP8XQ-35" style="edgeStyle=none;rounded=0;orthogonalLoop=1;jettySize=auto;html=1;entryX=1;entryY=0.25;entryDx=0;entryDy=0;strokeColor=default;align=center;verticalAlign=middle;fontFamily=Helvetica;fontSize=11;fontColor=default;labelBackgroundColor=default;endArrow=none;endFill=0;" parent="1" source="MRLTVpT2A0XdB1xVP8XQ-30" target="hsYlX0iy2CaupKlMKDtS-24" edge="1">
          <mxGeometry relative="1" as="geometry" />
        </mxCell>
        <mxCell id="MRLTVpT2A0XdB1xVP8XQ-30" value="Faltas" style="ellipse;whiteSpace=wrap;html=1;align=center;fontFamily=Helvetica;fontSize=11;fontColor=default;labelBackgroundColor=default;" parent="1" vertex="1">
          <mxGeometry x="1370" y="175" width="80" height="40" as="geometry" />
        </mxCell>
        <mxCell id="MRLTVpT2A0XdB1xVP8XQ-37" style="edgeStyle=none;rounded=0;orthogonalLoop=1;jettySize=auto;html=1;entryX=0.792;entryY=0.973;entryDx=0;entryDy=0;entryPerimeter=0;strokeColor=default;align=center;verticalAlign=middle;fontFamily=Helvetica;fontSize=11;fontColor=default;labelBackgroundColor=default;endArrow=none;endFill=0;" parent="1" source="MRLTVpT2A0XdB1xVP8XQ-27" target="hsYlX0iy2CaupKlMKDtS-24" edge="1">
          <mxGeometry relative="1" as="geometry" />
        </mxCell>
        <mxCell id="MRLTVpT2A0XdB1xVP8XQ-41" style="edgeStyle=none;rounded=0;orthogonalLoop=1;jettySize=auto;html=1;strokeColor=default;align=center;verticalAlign=middle;fontFamily=Helvetica;fontSize=11;fontColor=default;labelBackgroundColor=default;endArrow=none;endFill=0;" parent="1" source="MRLTVpT2A0XdB1xVP8XQ-40" target="hsYlX0iy2CaupKlMKDtS-24" edge="1">
          <mxGeometry relative="1" as="geometry" />
        </mxCell>
        <mxCell id="MRLTVpT2A0XdB1xVP8XQ-40" value="Idade" style="ellipse;whiteSpace=wrap;html=1;align=center;dashed=1;fontFamily=Helvetica;fontSize=11;fontColor=default;labelBackgroundColor=default;" parent="1" vertex="1">
          <mxGeometry x="1200" y="380" width="80" height="40" as="geometry" />
        </mxCell>
        <mxCell id="MRLTVpT2A0XdB1xVP8XQ-42" style="edgeStyle=none;rounded=0;orthogonalLoop=1;jettySize=auto;html=1;exitX=1;exitY=0;exitDx=0;exitDy=0;entryX=1;entryY=0.25;entryDx=0;entryDy=0;strokeColor=default;align=center;verticalAlign=middle;fontFamily=Helvetica;fontSize=11;fontColor=default;labelBackgroundColor=default;endArrow=none;endFill=0;" parent="1" source="hsYlX0iy2CaupKlMKDtS-3" target="hsYlX0iy2CaupKlMKDtS-3" edge="1">
          <mxGeometry relative="1" as="geometry" />
        </mxCell>
        <mxCell id="MRLTVpT2A0XdB1xVP8XQ-50" style="edgeStyle=none;rounded=0;orthogonalLoop=1;jettySize=auto;html=1;strokeColor=default;align=center;verticalAlign=middle;fontFamily=Helvetica;fontSize=11;fontColor=default;labelBackgroundColor=default;endArrow=none;endFill=0;" parent="1" source="MRLTVpT2A0XdB1xVP8XQ-44" target="MRLTVpT2A0XdB1xVP8XQ-45" edge="1">
          <mxGeometry relative="1" as="geometry" />
        </mxCell>
        <mxCell id="MRLTVpT2A0XdB1xVP8XQ-51" style="edgeStyle=none;rounded=0;orthogonalLoop=1;jettySize=auto;html=1;strokeColor=default;align=center;verticalAlign=middle;fontFamily=Helvetica;fontSize=11;fontColor=default;labelBackgroundColor=default;endArrow=none;endFill=0;" parent="1" source="MRLTVpT2A0XdB1xVP8XQ-44" target="MRLTVpT2A0XdB1xVP8XQ-46" edge="1">
          <mxGeometry relative="1" as="geometry" />
        </mxCell>
        <mxCell id="MRLTVpT2A0XdB1xVP8XQ-52" style="edgeStyle=none;rounded=0;orthogonalLoop=1;jettySize=auto;html=1;strokeColor=default;align=center;verticalAlign=middle;fontFamily=Helvetica;fontSize=11;fontColor=default;labelBackgroundColor=default;endArrow=none;endFill=0;" parent="1" source="MRLTVpT2A0XdB1xVP8XQ-44" target="MRLTVpT2A0XdB1xVP8XQ-47" edge="1">
          <mxGeometry relative="1" as="geometry" />
        </mxCell>
        <mxCell id="MRLTVpT2A0XdB1xVP8XQ-53" style="edgeStyle=none;rounded=0;orthogonalLoop=1;jettySize=auto;html=1;strokeColor=default;align=center;verticalAlign=middle;fontFamily=Helvetica;fontSize=11;fontColor=default;labelBackgroundColor=default;endArrow=none;endFill=0;" parent="1" source="MRLTVpT2A0XdB1xVP8XQ-44" target="MRLTVpT2A0XdB1xVP8XQ-48" edge="1">
          <mxGeometry relative="1" as="geometry" />
        </mxCell>
        <mxCell id="MRLTVpT2A0XdB1xVP8XQ-44" value="EndereÃ§o" style="ellipse;whiteSpace=wrap;html=1;align=center;fontFamily=Helvetica;fontSize=11;fontColor=default;labelBackgroundColor=default;" parent="1" vertex="1">
          <mxGeometry x="1110" y="730" width="80" height="40" as="geometry" />
        </mxCell>
        <mxCell id="MRLTVpT2A0XdB1xVP8XQ-45" value="Bairro" style="ellipse;whiteSpace=wrap;html=1;align=center;fontFamily=Helvetica;fontSize=11;fontColor=default;labelBackgroundColor=default;" parent="1" vertex="1">
          <mxGeometry x="990" y="820" width="80" height="40" as="geometry" />
        </mxCell>
        <mxCell id="MRLTVpT2A0XdB1xVP8XQ-46" value="Cidade" style="ellipse;whiteSpace=wrap;html=1;align=center;fontFamily=Helvetica;fontSize=11;fontColor=default;labelBackgroundColor=default;" parent="1" vertex="1">
          <mxGeometry x="1090" y="830" width="80" height="40" as="geometry" />
        </mxCell>
        <mxCell id="MRLTVpT2A0XdB1xVP8XQ-47" value="Estado" style="ellipse;whiteSpace=wrap;html=1;align=center;fontFamily=Helvetica;fontSize=11;fontColor=default;labelBackgroundColor=default;" parent="1" vertex="1">
          <mxGeometry x="1180" y="840" width="80" height="40" as="geometry" />
        </mxCell>
        <mxCell id="MRLTVpT2A0XdB1xVP8XQ-48" value="CEP" style="ellipse;whiteSpace=wrap;html=1;align=center;fontFamily=Helvetica;fontSize=11;fontColor=default;labelBackgroundColor=default;" parent="1" vertex="1">
          <mxGeometry x="980" y="760" width="80" height="40" as="geometry" />
        </mxCell>
        <mxCell id="MRLTVpT2A0XdB1xVP8XQ-55" style="edgeStyle=none;rounded=0;orthogonalLoop=1;jettySize=auto;html=1;entryX=0.454;entryY=0.975;entryDx=0;entryDy=0;entryPerimeter=0;strokeColor=default;align=center;verticalAlign=middle;fontFamily=Helvetica;fontSize=11;fontColor=default;labelBackgroundColor=default;endArrow=none;endFill=0;" parent="1" source="MRLTVpT2A0XdB1xVP8XQ-44" target="hsYlX0iy2CaupKlMKDtS-33" edge="1">
          <mxGeometry relative="1" as="geometry" />
        </mxCell>
        <mxCell id="MRLTVpT2A0XdB1xVP8XQ-58" style="edgeStyle=none;rounded=0;orthogonalLoop=1;jettySize=auto;html=1;entryX=1;entryY=0.75;entryDx=0;entryDy=0;strokeColor=default;align=center;verticalAlign=middle;fontFamily=Helvetica;fontSize=11;fontColor=default;labelBackgroundColor=default;endArrow=none;endFill=0;" parent="1" source="MRLTVpT2A0XdB1xVP8XQ-56" target="hsYlX0iy2CaupKlMKDtS-33" edge="1">
          <mxGeometry relative="1" as="geometry" />
        </mxCell>
        <mxCell id="MRLTVpT2A0XdB1xVP8XQ-56" value="Nome" style="ellipse;whiteSpace=wrap;html=1;align=center;fontFamily=Helvetica;fontSize=11;fontColor=default;labelBackgroundColor=default;" parent="1" vertex="1">
          <mxGeometry x="1350" y="660" width="80" height="40" as="geometry" />
        </mxCell>
        <mxCell id="MRLTVpT2A0XdB1xVP8XQ-59" style="edgeStyle=none;rounded=0;orthogonalLoop=1;jettySize=auto;html=1;strokeColor=default;align=center;verticalAlign=middle;fontFamily=Helvetica;fontSize=11;fontColor=default;labelBackgroundColor=default;endArrow=none;endFill=0;" parent="1" source="MRLTVpT2A0XdB1xVP8XQ-57" target="hsYlX0iy2CaupKlMKDtS-33" edge="1">
          <mxGeometry relative="1" as="geometry" />
        </mxCell>
        <mxCell id="MRLTVpT2A0XdB1xVP8XQ-57" value="Capacidade" style="ellipse;whiteSpace=wrap;html=1;align=center;fontFamily=Helvetica;fontSize=11;fontColor=default;labelBackgroundColor=default;" parent="1" vertex="1">
          <mxGeometry x="1330" y="735" width="80" height="40" as="geometry" />
        </mxCell>
        <mxCell id="MRLTVpT2A0XdB1xVP8XQ-60" value="CÃ³digo" style="ellipse;whiteSpace=wrap;html=1;align=center;fontStyle=4;fontFamily=Helvetica;fontSize=11;fontColor=default;labelBackgroundColor=default;" parent="1" vertex="1">
          <mxGeometry x="1355" y="570" width="70" height="40" as="geometry" />
        </mxCell>
        <mxCell id="MRLTVpT2A0XdB1xVP8XQ-63" value="CÃ³digo" style="ellipse;whiteSpace=wrap;html=1;align=center;fontStyle=4;fontFamily=Helvetica;fontSize=11;fontColor=default;labelBackgroundColor=default;" parent="1" vertex="1">
          <mxGeometry x="810" y="930" width="70" height="40" as="geometry" />
        </mxCell>
        <mxCell id="MRLTVpT2A0XdB1xVP8XQ-65" value="Nome" style="ellipse;whiteSpace=wrap;html=1;align=center;fontFamily=Helvetica;fontSize=11;fontColor=default;labelBackgroundColor=default;" parent="1" vertex="1">
          <mxGeometry x="700" y="950" width="80" height="40" as="geometry" />
        </mxCell>
        <mxCell id="MRLTVpT2A0XdB1xVP8XQ-66" style="edgeStyle=none;rounded=0;orthogonalLoop=1;jettySize=auto;html=1;entryX=0.34;entryY=1.011;entryDx=0;entryDy=0;entryPerimeter=0;strokeColor=default;align=center;verticalAlign=middle;fontFamily=Helvetica;fontSize=11;fontColor=default;labelBackgroundColor=default;endArrow=none;endFill=0;" parent="1" source="MRLTVpT2A0XdB1xVP8XQ-65" target="hsYlX0iy2CaupKlMKDtS-39" edge="1">
          <mxGeometry relative="1" as="geometry" />
        </mxCell>
        <mxCell id="MRLTVpT2A0XdB1xVP8XQ-69" style="edgeStyle=none;rounded=0;orthogonalLoop=1;jettySize=auto;html=1;strokeColor=default;align=center;verticalAlign=middle;fontFamily=Helvetica;fontSize=11;fontColor=default;labelBackgroundColor=default;endArrow=none;endFill=0;" parent="1" source="MRLTVpT2A0XdB1xVP8XQ-68" target="hsYlX0iy2CaupKlMKDtS-39" edge="1">
          <mxGeometry relative="1" as="geometry" />
        </mxCell>
        <mxCell id="MRLTVpT2A0XdB1xVP8XQ-68" value="DataNasc" style="ellipse;whiteSpace=wrap;html=1;align=center;fontFamily=Helvetica;fontSize=11;fontColor=default;labelBackgroundColor=default;" parent="1" vertex="1">
          <mxGeometry x="600" y="920" width="80" height="40" as="geometry" />
        </mxCell>
        <mxCell id="MRLTVpT2A0XdB1xVP8XQ-71" style="edgeStyle=none;rounded=0;orthogonalLoop=1;jettySize=auto;html=1;strokeColor=default;align=center;verticalAlign=middle;fontFamily=Helvetica;fontSize=11;fontColor=default;labelBackgroundColor=default;endArrow=none;endFill=0;" parent="1" target="hsYlX0iy2CaupKlMKDtS-39" edge="1">
          <mxGeometry relative="1" as="geometry">
            <mxPoint x="622.7347885566523" y="874.2530422886693" as="sourcePoint" />
          </mxGeometry>
        </mxCell>
        <mxCell id="MRLTVpT2A0XdB1xVP8XQ-70" value="Idade" style="ellipse;whiteSpace=wrap;html=1;align=center;dashed=1;fontFamily=Helvetica;fontSize=11;fontColor=default;labelBackgroundColor=default;" parent="1" vertex="1">
          <mxGeometry x="580" y="860" width="60" height="40" as="geometry" />
        </mxCell>
        <mxCell id="MRLTVpT2A0XdB1xVP8XQ-73" style="edgeStyle=none;rounded=0;orthogonalLoop=1;jettySize=auto;html=1;strokeColor=default;align=center;verticalAlign=middle;fontFamily=Helvetica;fontSize=11;fontColor=default;labelBackgroundColor=default;endArrow=none;endFill=0;" parent="1" source="MRLTVpT2A0XdB1xVP8XQ-72" target="hsYlX0iy2CaupKlMKDtS-51" edge="1">
          <mxGeometry relative="1" as="geometry" />
        </mxCell>
        <mxCell id="MRLTVpT2A0XdB1xVP8XQ-72" value="CÃ³digo" style="ellipse;whiteSpace=wrap;html=1;align=center;fontStyle=4;fontFamily=Helvetica;fontSize=11;fontColor=default;labelBackgroundColor=default;" parent="1" vertex="1">
          <mxGeometry x="-570" y="530" width="70" height="40" as="geometry" />
        </mxCell>
        <mxCell id="MRLTVpT2A0XdB1xVP8XQ-75" style="edgeStyle=none;rounded=0;orthogonalLoop=1;jettySize=auto;html=1;strokeColor=default;align=center;verticalAlign=middle;fontFamily=Helvetica;fontSize=11;fontColor=default;labelBackgroundColor=default;endArrow=none;endFill=0;" parent="1" source="MRLTVpT2A0XdB1xVP8XQ-74" target="hsYlX0iy2CaupKlMKDtS-59" edge="1">
          <mxGeometry relative="1" as="geometry" />
        </mxCell>
        <mxCell id="MRLTVpT2A0XdB1xVP8XQ-74" value="CÃ³digo" style="ellipse;whiteSpace=wrap;html=1;align=center;fontStyle=4;fontFamily=Helvetica;fontSize=11;fontColor=default;labelBackgroundColor=default;" parent="1" vertex="1">
          <mxGeometry x="-290" y="890" width="70" height="40" as="geometry" />
        </mxCell>
        <mxCell id="MRLTVpT2A0XdB1xVP8XQ-76" value="Nome" style="ellipse;whiteSpace=wrap;html=1;align=center;fontFamily=Helvetica;fontSize=11;fontColor=default;labelBackgroundColor=default;" parent="1" vertex="1">
          <mxGeometry x="-370" y="940" width="80" height="40" as="geometry" />
        </mxCell>
        <mxCell id="MRLTVpT2A0XdB1xVP8XQ-79" style="edgeStyle=none;rounded=0;orthogonalLoop=1;jettySize=auto;html=1;strokeColor=default;align=center;verticalAlign=middle;fontFamily=Helvetica;fontSize=11;fontColor=default;labelBackgroundColor=default;endArrow=none;endFill=0;" parent="1" source="MRLTVpT2A0XdB1xVP8XQ-78" target="hsYlX0iy2CaupKlMKDtS-59" edge="1">
          <mxGeometry relative="1" as="geometry" />
        </mxCell>
        <mxCell id="MRLTVpT2A0XdB1xVP8XQ-78" value="DataNasc" style="ellipse;whiteSpace=wrap;html=1;align=center;fontFamily=Helvetica;fontSize=11;fontColor=default;labelBackgroundColor=default;" parent="1" vertex="1">
          <mxGeometry x="-480" y="940" width="80" height="40" as="geometry" />
        </mxCell>
        <mxCell id="MRLTVpT2A0XdB1xVP8XQ-81" style="edgeStyle=none;rounded=0;orthogonalLoop=1;jettySize=auto;html=1;strokeColor=default;align=center;verticalAlign=middle;fontFamily=Helvetica;fontSize=11;fontColor=default;labelBackgroundColor=default;endArrow=none;endFill=0;" parent="1" source="MRLTVpT2A0XdB1xVP8XQ-80" target="hsYlX0iy2CaupKlMKDtS-59" edge="1">
          <mxGeometry relative="1" as="geometry" />
        </mxCell>
        <mxCell id="MRLTVpT2A0XdB1xVP8XQ-80" value="Idade" style="ellipse;whiteSpace=wrap;html=1;align=center;dashed=1;fontFamily=Helvetica;fontSize=11;fontColor=default;labelBackgroundColor=default;" parent="1" vertex="1">
          <mxGeometry x="-540" y="910" width="60" height="40" as="geometry" />
        </mxCell>
        <mxCell id="MRLTVpT2A0XdB1xVP8XQ-83" style="edgeStyle=none;rounded=0;orthogonalLoop=1;jettySize=auto;html=1;entryX=0;entryY=0.5;entryDx=0;entryDy=0;strokeColor=default;align=center;verticalAlign=middle;fontFamily=Helvetica;fontSize=11;fontColor=default;labelBackgroundColor=default;endArrow=none;endFill=0;" parent="1" source="MRLTVpT2A0XdB1xVP8XQ-82" target="hsYlX0iy2CaupKlMKDtS-59" edge="1">
          <mxGeometry relative="1" as="geometry" />
        </mxCell>
        <mxCell id="MRLTVpT2A0XdB1xVP8XQ-82" value="FunÃ§Ã£o" style="ellipse;whiteSpace=wrap;html=1;align=center;fontFamily=Helvetica;fontSize=11;fontColor=default;labelBackgroundColor=default;" parent="1" vertex="1">
          <mxGeometry x="-550" y="860" width="60" height="40" as="geometry" />
        </mxCell>
        <mxCell id="MRLTVpT2A0XdB1xVP8XQ-92" style="edgeStyle=none;rounded=0;orthogonalLoop=1;jettySize=auto;html=1;entryX=0;entryY=0.75;entryDx=0;entryDy=0;strokeColor=default;align=center;verticalAlign=middle;fontFamily=Helvetica;fontSize=11;fontColor=default;labelBackgroundColor=default;endArrow=none;endFill=0;" parent="1" source="MRLTVpT2A0XdB1xVP8XQ-85" target="hsYlX0iy2CaupKlMKDtS-3" edge="1">
          <mxGeometry relative="1" as="geometry" />
        </mxCell>
        <mxCell id="MRLTVpT2A0XdB1xVP8XQ-85" value="CÃ³digo" style="ellipse;whiteSpace=wrap;html=1;align=center;fontStyle=4;fontFamily=Helvetica;fontSize=11;fontColor=default;labelBackgroundColor=default;" parent="1" vertex="1">
          <mxGeometry x="325" y="445" width="70" height="40" as="geometry" />
        </mxCell>
        <mxCell id="MRLTVpT2A0XdB1xVP8XQ-98" style="edgeStyle=none;rounded=0;orthogonalLoop=1;jettySize=auto;html=1;entryX=0;entryY=1;entryDx=0;entryDy=0;strokeColor=default;align=center;verticalAlign=middle;fontFamily=Helvetica;fontSize=11;fontColor=default;labelBackgroundColor=default;endArrow=none;endFill=0;" parent="1" source="MRLTVpT2A0XdB1xVP8XQ-86" target="hsYlX0iy2CaupKlMKDtS-3" edge="1">
          <mxGeometry relative="1" as="geometry" />
        </mxCell>
        <mxCell id="MRLTVpT2A0XdB1xVP8XQ-86" value="Nome" style="ellipse;whiteSpace=wrap;html=1;align=center;fontFamily=Helvetica;fontSize=11;fontColor=default;labelBackgroundColor=default;" parent="1" vertex="1">
          <mxGeometry x="320" y="490" width="80" height="40" as="geometry" />
        </mxCell>
        <mxCell id="MRLTVpT2A0XdB1xVP8XQ-87" value="VitÃ³rias" style="ellipse;whiteSpace=wrap;html=1;align=center;fontFamily=Helvetica;fontSize=11;fontColor=default;labelBackgroundColor=default;" parent="1" vertex="1">
          <mxGeometry x="325" y="540" width="80" height="40" as="geometry" />
        </mxCell>
        <mxCell id="MRLTVpT2A0XdB1xVP8XQ-100" style="edgeStyle=none;rounded=0;orthogonalLoop=1;jettySize=auto;html=1;entryX=0.25;entryY=1;entryDx=0;entryDy=0;strokeColor=default;align=center;verticalAlign=middle;fontFamily=Helvetica;fontSize=11;fontColor=default;labelBackgroundColor=default;endArrow=none;endFill=0;" parent="1" source="MRLTVpT2A0XdB1xVP8XQ-88" target="hsYlX0iy2CaupKlMKDtS-3" edge="1">
          <mxGeometry relative="1" as="geometry" />
        </mxCell>
        <mxCell id="MRLTVpT2A0XdB1xVP8XQ-88" value="Derrotas" style="ellipse;whiteSpace=wrap;html=1;align=center;fontFamily=Helvetica;fontSize=11;fontColor=default;labelBackgroundColor=default;" parent="1" vertex="1">
          <mxGeometry x="340" y="589" width="80" height="40" as="geometry" />
        </mxCell>
        <mxCell id="MRLTVpT2A0XdB1xVP8XQ-97" style="edgeStyle=none;rounded=0;orthogonalLoop=1;jettySize=auto;html=1;entryX=0;entryY=0.5;entryDx=0;entryDy=0;strokeColor=default;align=center;verticalAlign=middle;fontFamily=Helvetica;fontSize=11;fontColor=default;labelBackgroundColor=default;endArrow=none;endFill=0;" parent="1" source="MRLTVpT2A0XdB1xVP8XQ-89" target="hsYlX0iy2CaupKlMKDtS-3" edge="1">
          <mxGeometry relative="1" as="geometry" />
        </mxCell>
        <mxCell id="MRLTVpT2A0XdB1xVP8XQ-89" value="Empates" style="ellipse;whiteSpace=wrap;html=1;align=center;fontFamily=Helvetica;fontSize=11;fontColor=default;labelBackgroundColor=default;" parent="1" vertex="1">
          <mxGeometry x="330" y="400" width="80" height="40" as="geometry" />
        </mxCell>
        <mxCell id="MRLTVpT2A0XdB1xVP8XQ-102" style="edgeStyle=none;rounded=0;orthogonalLoop=1;jettySize=auto;html=1;entryX=0.43;entryY=0.945;entryDx=0;entryDy=0;strokeColor=default;align=center;verticalAlign=middle;fontFamily=Helvetica;fontSize=11;fontColor=default;labelBackgroundColor=default;endArrow=none;endFill=0;exitX=0.5;exitY=0.15;exitDx=0;exitDy=0;exitPerimeter=0;entryPerimeter=0;" parent="1" source="MRLTVpT2A0XdB1xVP8XQ-144" target="hsYlX0iy2CaupKlMKDtS-3" edge="1">
          <mxGeometry relative="1" as="geometry">
            <mxPoint x="498.3518814442973" y="630.7906726781171" as="sourcePoint" />
          </mxGeometry>
        </mxCell>
        <mxCell id="MRLTVpT2A0XdB1xVP8XQ-101" style="edgeStyle=none;rounded=0;orthogonalLoop=1;jettySize=auto;html=1;strokeColor=default;align=center;verticalAlign=middle;fontFamily=Helvetica;fontSize=11;fontColor=default;labelBackgroundColor=default;endArrow=none;endFill=0;exitX=0.5;exitY=0;exitDx=0;exitDy=0;" parent="1" source="sAkLU7JTGPbsaVfbzlbN-1" target="hsYlX0iy2CaupKlMKDtS-3" edge="1">
          <mxGeometry relative="1" as="geometry">
            <mxPoint x="441.7623182761563" y="631.6013542917717" as="sourcePoint" />
          </mxGeometry>
        </mxCell>
        <mxCell id="MRLTVpT2A0XdB1xVP8XQ-99" style="edgeStyle=none;rounded=0;orthogonalLoop=1;jettySize=auto;html=1;entryX=0.117;entryY=0.955;entryDx=0;entryDy=0;entryPerimeter=0;strokeColor=default;align=center;verticalAlign=middle;fontFamily=Helvetica;fontSize=11;fontColor=default;labelBackgroundColor=default;endArrow=none;endFill=0;" parent="1" source="MRLTVpT2A0XdB1xVP8XQ-87" target="hsYlX0iy2CaupKlMKDtS-3" edge="1">
          <mxGeometry relative="1" as="geometry" />
        </mxCell>
        <mxCell id="MRLTVpT2A0XdB1xVP8XQ-113" style="edgeStyle=none;rounded=0;orthogonalLoop=1;jettySize=auto;html=1;entryX=0;entryY=0.75;entryDx=0;entryDy=0;strokeColor=default;align=center;verticalAlign=middle;fontFamily=Helvetica;fontSize=11;fontColor=default;labelBackgroundColor=default;endArrow=none;endFill=0;" parent="1" source="MRLTVpT2A0XdB1xVP8XQ-103" target="hsYlX0iy2CaupKlMKDtS-4" edge="1">
          <mxGeometry relative="1" as="geometry" />
        </mxCell>
        <mxCell id="MRLTVpT2A0XdB1xVP8XQ-103" value="CÃ³digo" style="ellipse;whiteSpace=wrap;html=1;align=center;fontStyle=4;fontFamily=Helvetica;fontSize=11;fontColor=default;labelBackgroundColor=default;" parent="1" vertex="1">
          <mxGeometry x="-220" y="420" width="65" height="40" as="geometry" />
        </mxCell>
        <mxCell id="MRLTVpT2A0XdB1xVP8XQ-114" style="edgeStyle=none;rounded=0;orthogonalLoop=1;jettySize=auto;html=1;strokeColor=default;align=center;verticalAlign=middle;fontFamily=Helvetica;fontSize=11;fontColor=default;labelBackgroundColor=default;endArrow=none;endFill=0;entryX=0;entryY=0.75;entryDx=0;entryDy=0;" parent="1" source="MRLTVpT2A0XdB1xVP8XQ-104" target="hsYlX0iy2CaupKlMKDtS-4" edge="1">
          <mxGeometry relative="1" as="geometry" />
        </mxCell>
        <mxCell id="MRLTVpT2A0XdB1xVP8XQ-104" value="DuraÃ§Ã£o" style="ellipse;whiteSpace=wrap;html=1;align=center;fontFamily=Helvetica;fontSize=11;fontColor=default;labelBackgroundColor=default;" parent="1" vertex="1">
          <mxGeometry x="-220" y="470" width="65" height="40" as="geometry" />
        </mxCell>
        <mxCell id="MRLTVpT2A0XdB1xVP8XQ-116" style="edgeStyle=none;rounded=0;orthogonalLoop=1;jettySize=auto;html=1;entryX=0;entryY=1;entryDx=0;entryDy=0;strokeColor=default;align=center;verticalAlign=middle;fontFamily=Helvetica;fontSize=11;fontColor=default;labelBackgroundColor=default;endArrow=none;endFill=0;" parent="1" source="MRLTVpT2A0XdB1xVP8XQ-105" target="hsYlX0iy2CaupKlMKDtS-4" edge="1">
          <mxGeometry relative="1" as="geometry" />
        </mxCell>
        <mxCell id="MRLTVpT2A0XdB1xVP8XQ-105" value="Mandante" style="ellipse;whiteSpace=wrap;html=1;align=center;fontFamily=Helvetica;fontSize=11;fontColor=default;labelBackgroundColor=default;" parent="1" vertex="1">
          <mxGeometry x="-225" y="570" width="80" height="40" as="geometry" />
        </mxCell>
        <mxCell id="MRLTVpT2A0XdB1xVP8XQ-115" style="edgeStyle=none;rounded=0;orthogonalLoop=1;jettySize=auto;html=1;entryX=0;entryY=1;entryDx=0;entryDy=0;strokeColor=default;align=center;verticalAlign=middle;fontFamily=Helvetica;fontSize=11;fontColor=default;labelBackgroundColor=default;endArrow=none;endFill=0;" parent="1" source="MRLTVpT2A0XdB1xVP8XQ-106" target="hsYlX0iy2CaupKlMKDtS-4" edge="1">
          <mxGeometry relative="1" as="geometry" />
        </mxCell>
        <mxCell id="MRLTVpT2A0XdB1xVP8XQ-106" value="Visitante" style="ellipse;whiteSpace=wrap;html=1;align=center;fontFamily=Helvetica;fontSize=11;fontColor=default;labelBackgroundColor=default;" parent="1" vertex="1">
          <mxGeometry x="-225" y="520" width="70" height="40" as="geometry" />
        </mxCell>
        <mxCell id="MRLTVpT2A0XdB1xVP8XQ-107" value="Gols mandante" style="ellipse;whiteSpace=wrap;html=1;align=center;fontFamily=Helvetica;fontSize=11;fontColor=default;labelBackgroundColor=default;" parent="1" vertex="1">
          <mxGeometry x="-200" y="617.5" width="85.5" height="35" as="geometry" />
        </mxCell>
        <mxCell id="MRLTVpT2A0XdB1xVP8XQ-123" style="edgeStyle=none;rounded=0;orthogonalLoop=1;jettySize=auto;html=1;entryX=0.25;entryY=1;entryDx=0;entryDy=0;strokeColor=default;align=center;verticalAlign=middle;fontFamily=Helvetica;fontSize=11;fontColor=default;labelBackgroundColor=default;endArrow=none;endFill=0;" parent="1" source="MRLTVpT2A0XdB1xVP8XQ-108" target="hsYlX0iy2CaupKlMKDtS-4" edge="1">
          <mxGeometry relative="1" as="geometry" />
        </mxCell>
        <mxCell id="MRLTVpT2A0XdB1xVP8XQ-108" value="Gols visitante" style="ellipse;whiteSpace=wrap;html=1;align=center;fontFamily=Helvetica;fontSize=11;fontColor=default;labelBackgroundColor=default;" parent="1" vertex="1">
          <mxGeometry x="-120" y="652.5" width="80" height="40" as="geometry" />
        </mxCell>
        <mxCell id="MRLTVpT2A0XdB1xVP8XQ-124" style="edgeStyle=none;rounded=0;orthogonalLoop=1;jettySize=auto;html=1;entryX=0.25;entryY=1;entryDx=0;entryDy=0;strokeColor=default;align=center;verticalAlign=middle;fontFamily=Helvetica;fontSize=11;fontColor=default;labelBackgroundColor=default;endArrow=none;endFill=0;" parent="1" source="MRLTVpT2A0XdB1xVP8XQ-109" target="hsYlX0iy2CaupKlMKDtS-4" edge="1">
          <mxGeometry relative="1" as="geometry" />
        </mxCell>
        <mxCell id="MRLTVpT2A0XdB1xVP8XQ-109" value="Faltas mandante" style="ellipse;whiteSpace=wrap;html=1;align=center;fontFamily=Helvetica;fontSize=11;fontColor=default;labelBackgroundColor=default;" parent="1" vertex="1">
          <mxGeometry x="49.5" y="629" width="61" height="40" as="geometry" />
        </mxCell>
        <mxCell id="MRLTVpT2A0XdB1xVP8XQ-110" value="Posse de bola Mandante" style="ellipse;whiteSpace=wrap;html=1;align=center;fontFamily=Helvetica;fontSize=11;fontColor=default;labelBackgroundColor=default;" parent="1" vertex="1">
          <mxGeometry x="120" y="577.5" width="80" height="40" as="geometry" />
        </mxCell>
        <mxCell id="MRLTVpT2A0XdB1xVP8XQ-126" style="edgeStyle=none;rounded=0;orthogonalLoop=1;jettySize=auto;html=1;entryX=0.5;entryY=1;entryDx=0;entryDy=0;strokeColor=default;align=center;verticalAlign=middle;fontFamily=Helvetica;fontSize=11;fontColor=default;labelBackgroundColor=default;endArrow=none;endFill=0;" parent="1" source="MRLTVpT2A0XdB1xVP8XQ-111" target="hsYlX0iy2CaupKlMKDtS-4" edge="1">
          <mxGeometry relative="1" as="geometry" />
        </mxCell>
        <mxCell id="MRLTVpT2A0XdB1xVP8XQ-111" value="C. Amarelos mandante" style="ellipse;whiteSpace=wrap;html=1;align=center;fontFamily=Helvetica;fontSize=11;fontColor=default;labelBackgroundColor=default;" parent="1" vertex="1">
          <mxGeometry x="160" y="530" width="80" height="40" as="geometry" />
        </mxCell>
        <mxCell id="MRLTVpT2A0XdB1xVP8XQ-127" style="edgeStyle=none;rounded=0;orthogonalLoop=1;jettySize=auto;html=1;entryX=0.5;entryY=1;entryDx=0;entryDy=0;strokeColor=default;align=center;verticalAlign=middle;fontFamily=Helvetica;fontSize=11;fontColor=default;labelBackgroundColor=default;endArrow=none;endFill=0;" parent="1" source="MRLTVpT2A0XdB1xVP8XQ-112" target="hsYlX0iy2CaupKlMKDtS-4" edge="1">
          <mxGeometry relative="1" as="geometry" />
        </mxCell>
        <mxCell id="MRLTVpT2A0XdB1xVP8XQ-112" value="C. Vermelhos mandante" style="ellipse;whiteSpace=wrap;html=1;align=center;fontFamily=Helvetica;fontSize=11;fontColor=default;labelBackgroundColor=default;" parent="1" vertex="1">
          <mxGeometry x="180" y="485" width="80" height="40" as="geometry" />
        </mxCell>
        <mxCell id="MRLTVpT2A0XdB1xVP8XQ-125" style="edgeStyle=none;rounded=0;orthogonalLoop=1;jettySize=auto;html=1;entryX=0.357;entryY=1.004;entryDx=0;entryDy=0;entryPerimeter=0;strokeColor=default;align=center;verticalAlign=middle;fontFamily=Helvetica;fontSize=11;fontColor=default;labelBackgroundColor=default;endArrow=none;endFill=0;" parent="1" source="MRLTVpT2A0XdB1xVP8XQ-110" target="hsYlX0iy2CaupKlMKDtS-4" edge="1">
          <mxGeometry relative="1" as="geometry" />
        </mxCell>
        <mxCell id="MRLTVpT2A0XdB1xVP8XQ-131" style="edgeStyle=none;rounded=0;orthogonalLoop=1;jettySize=auto;html=1;entryX=0.75;entryY=1;entryDx=0;entryDy=0;strokeColor=default;align=center;verticalAlign=middle;fontFamily=Helvetica;fontSize=11;fontColor=default;labelBackgroundColor=default;endArrow=none;endFill=0;" parent="1" source="MRLTVpT2A0XdB1xVP8XQ-130" target="hsYlX0iy2CaupKlMKDtS-4" edge="1">
          <mxGeometry relative="1" as="geometry" />
        </mxCell>
        <mxCell id="MRLTVpT2A0XdB1xVP8XQ-130" value="Posse de bola Visitante" style="ellipse;whiteSpace=wrap;html=1;align=center;dashed=1;fontFamily=Helvetica;fontSize=11;fontColor=default;labelBackgroundColor=default;" parent="1" vertex="1">
          <mxGeometry x="210" y="430" width="60" height="40" as="geometry" />
        </mxCell>
        <mxCell id="MRLTVpT2A0XdB1xVP8XQ-133" style="edgeStyle=none;rounded=0;orthogonalLoop=1;jettySize=auto;html=1;entryX=0.098;entryY=0.963;entryDx=0;entryDy=0;entryPerimeter=0;strokeColor=default;align=center;verticalAlign=middle;fontFamily=Helvetica;fontSize=11;fontColor=default;labelBackgroundColor=default;endArrow=none;endFill=0;" parent="1" source="MRLTVpT2A0XdB1xVP8XQ-107" target="hsYlX0iy2CaupKlMKDtS-4" edge="1">
          <mxGeometry relative="1" as="geometry" />
        </mxCell>
        <mxCell id="MRLTVpT2A0XdB1xVP8XQ-136" style="edgeStyle=none;rounded=0;orthogonalLoop=1;jettySize=auto;html=1;strokeColor=default;align=center;verticalAlign=middle;fontFamily=Helvetica;fontSize=11;fontColor=default;labelBackgroundColor=default;endArrow=none;endFill=0;exitX=0.5;exitY=0;exitDx=0;exitDy=0;" parent="1" source="sAkLU7JTGPbsaVfbzlbN-8" target="hsYlX0iy2CaupKlMKDtS-3" edge="1">
          <mxGeometry relative="1" as="geometry">
            <mxPoint x="571.5886768101805" y="630.0280629577328" as="sourcePoint" />
          </mxGeometry>
        </mxCell>
        <mxCell id="MRLTVpT2A0XdB1xVP8XQ-140" style="edgeStyle=none;rounded=0;orthogonalLoop=1;jettySize=auto;html=1;strokeColor=default;align=center;verticalAlign=middle;fontFamily=Helvetica;fontSize=11;fontColor=default;labelBackgroundColor=default;endArrow=none;endFill=0;exitX=0.5;exitY=0;exitDx=0;exitDy=0;" parent="1" source="sAkLU7JTGPbsaVfbzlbN-9" target="hsYlX0iy2CaupKlMKDtS-3" edge="1">
          <mxGeometry relative="1" as="geometry">
            <mxPoint x="626.8359281399576" y="630.1115483083031" as="sourcePoint" />
          </mxGeometry>
        </mxCell>
        <mxCell id="MRLTVpT2A0XdB1xVP8XQ-141" style="edgeStyle=none;rounded=0;orthogonalLoop=1;jettySize=auto;html=1;exitX=0;exitY=1;exitDx=0;exitDy=0;strokeColor=default;align=center;verticalAlign=middle;fontFamily=Helvetica;fontSize=11;fontColor=default;labelBackgroundColor=default;endArrow=none;endFill=0;" parent="1" source="hsYlX0iy2CaupKlMKDtS-37" target="hsYlX0iy2CaupKlMKDtS-37" edge="1">
          <mxGeometry relative="1" as="geometry" />
        </mxCell>
        <mxCell id="MRLTVpT2A0XdB1xVP8XQ-143" style="edgeStyle=none;rounded=0;orthogonalLoop=1;jettySize=auto;html=1;entryX=0.614;entryY=1;entryDx=0;entryDy=0;strokeColor=default;align=center;verticalAlign=middle;fontFamily=Helvetica;fontSize=11;fontColor=default;labelBackgroundColor=default;endArrow=none;endFill=0;entryPerimeter=0;" parent="1" source="sAkLU7JTGPbsaVfbzlbN-10" target="hsYlX0iy2CaupKlMKDtS-3" edge="1">
          <mxGeometry relative="1" as="geometry">
            <mxPoint x="670.6993820049756" y="560.9854032101721" as="sourcePoint" />
          </mxGeometry>
        </mxCell>
        <mxCell id="MRLTVpT2A0XdB1xVP8XQ-144" value="Gols sofridos" style="ellipse;whiteSpace=wrap;html=1;align=center;fontFamily=Helvetica;fontSize=11;fontColor=default;labelBackgroundColor=default;" parent="1" vertex="1">
          <mxGeometry x="460" y="634" width="70" height="40" as="geometry" />
        </mxCell>
        <mxCell id="MRLTVpT2A0XdB1xVP8XQ-147" style="edgeStyle=none;rounded=0;orthogonalLoop=1;jettySize=auto;html=1;entryX=0;entryY=0.25;entryDx=0;entryDy=0;strokeColor=default;align=center;verticalAlign=middle;fontFamily=Helvetica;fontSize=11;fontColor=default;labelBackgroundColor=default;endArrow=none;endFill=0;" parent="1" source="MRLTVpT2A0XdB1xVP8XQ-146" target="hsYlX0iy2CaupKlMKDtS-3" edge="1">
          <mxGeometry relative="1" as="geometry" />
        </mxCell>
        <mxCell id="MRLTVpT2A0XdB1xVP8XQ-146" value="Saldo de gols" style="ellipse;whiteSpace=wrap;html=1;align=center;dashed=1;fontFamily=Helvetica;fontSize=11;fontColor=default;labelBackgroundColor=default;" parent="1" vertex="1">
          <mxGeometry x="410" y="305" width="60" height="40" as="geometry" />
        </mxCell>
        <mxCell id="24UfSfpfyz47ygpfIQZ1-6" value="Pontos" style="ellipse;whiteSpace=wrap;html=1;align=center;dashed=1;fontFamily=Helvetica;fontSize=11;fontColor=default;labelBackgroundColor=default;" parent="1" vertex="1">
          <mxGeometry x="470" y="290" width="60" height="40" as="geometry" />
        </mxCell>
        <mxCell id="24UfSfpfyz47ygpfIQZ1-8" style="edgeStyle=none;rounded=0;orthogonalLoop=1;jettySize=auto;html=1;entryX=0;entryY=0;entryDx=0;entryDy=0;strokeColor=default;align=center;verticalAlign=middle;fontFamily=Helvetica;fontSize=11;fontColor=default;labelBackgroundColor=default;endArrow=none;endFill=0;exitX=1.017;exitY=0.635;exitDx=0;exitDy=0;exitPerimeter=0;" parent="1" source="24UfSfpfyz47ygpfIQZ1-6" target="hsYlX0iy2CaupKlMKDtS-3" edge="1">
          <mxGeometry relative="1" as="geometry">
            <mxPoint x="490" y="336.5" as="sourcePoint" />
            <mxPoint x="575" y="343.5" as="targetPoint" />
          </mxGeometry>
        </mxCell>
        <mxCell id="24UfSfpfyz47ygpfIQZ1-9" value="ClassificaÃ§Ã£o" style="ellipse;whiteSpace=wrap;html=1;align=center;dashed=1;fontFamily=Helvetica;fontSize=11;fontColor=default;labelBackgroundColor=default;" parent="1" vertex="1">
          <mxGeometry x="350" y="-30" width="85" height="40" as="geometry" />
        </mxCell>
        <mxCell id="24UfSfpfyz47ygpfIQZ1-10" style="edgeStyle=none;rounded=0;orthogonalLoop=1;jettySize=auto;html=1;strokeColor=default;align=center;verticalAlign=middle;fontFamily=Helvetica;fontSize=11;fontColor=default;labelBackgroundColor=default;endArrow=none;endFill=0;exitX=0;exitY=0.5;exitDx=0;exitDy=0;entryX=1;entryY=0;entryDx=0;entryDy=0;" parent="1" source="24UfSfpfyz47ygpfIQZ1-9" target="hsYlX0iy2CaupKlMKDtS-1" edge="1">
          <mxGeometry relative="1" as="geometry">
            <mxPoint x="330" y="-41" as="sourcePoint" />
            <mxPoint x="225" y="95" as="targetPoint" />
          </mxGeometry>
        </mxCell>
        <mxCell id="24UfSfpfyz47ygpfIQZ1-11" value="Faltas visitante" style="ellipse;whiteSpace=wrap;html=1;align=center;fontFamily=Helvetica;fontSize=11;fontColor=default;labelBackgroundColor=default;" parent="1" vertex="1">
          <mxGeometry x="-31" y="652.5" width="61" height="40" as="geometry" />
        </mxCell>
        <mxCell id="24UfSfpfyz47ygpfIQZ1-12" style="edgeStyle=none;rounded=0;orthogonalLoop=1;jettySize=auto;html=1;entryX=0.25;entryY=1;entryDx=0;entryDy=0;strokeColor=default;align=center;verticalAlign=middle;fontFamily=Helvetica;fontSize=11;fontColor=default;labelBackgroundColor=default;endArrow=none;endFill=0;exitX=0.5;exitY=0;exitDx=0;exitDy=0;" parent="1" source="24UfSfpfyz47ygpfIQZ1-11" target="hsYlX0iy2CaupKlMKDtS-4" edge="1">
          <mxGeometry relative="1" as="geometry">
            <mxPoint x="47.5" y="640" as="sourcePoint" />
            <mxPoint x="-48.5" y="449" as="targetPoint" />
          </mxGeometry>
        </mxCell>
        <mxCell id="sAkLU7JTGPbsaVfbzlbN-1" value="Gols pro" style="ellipse;whiteSpace=wrap;html=1;align=center;fontFamily=Helvetica;fontSize=11;fontColor=default;labelBackgroundColor=default;" vertex="1" parent="1">
          <mxGeometry x="395" y="630" width="55" height="40" as="geometry" />
        </mxCell>
        <mxCell id="sAkLU7JTGPbsaVfbzlbN-4" value="C. Amarelos visitante" style="ellipse;whiteSpace=wrap;html=1;align=center;fontFamily=Helvetica;fontSize=11;fontColor=default;labelBackgroundColor=default;" vertex="1" parent="1">
          <mxGeometry x="-200" y="280" width="80" height="40" as="geometry" />
        </mxCell>
        <mxCell id="sAkLU7JTGPbsaVfbzlbN-5" value="C. Vermelhos visitante" style="ellipse;whiteSpace=wrap;html=1;align=center;fontFamily=Helvetica;fontSize=11;fontColor=default;labelBackgroundColor=default;" vertex="1" parent="1">
          <mxGeometry x="-250" y="320" width="80" height="40" as="geometry" />
        </mxCell>
        <mxCell id="sAkLU7JTGPbsaVfbzlbN-6" style="edgeStyle=none;rounded=0;orthogonalLoop=1;jettySize=auto;html=1;entryX=1;entryY=0.5;entryDx=0;entryDy=0;strokeColor=default;align=center;verticalAlign=middle;fontFamily=Helvetica;fontSize=11;fontColor=default;labelBackgroundColor=default;endArrow=none;endFill=0;exitX=0;exitY=0;exitDx=0;exitDy=0;" edge="1" parent="1" source="hsYlX0iy2CaupKlMKDtS-4" target="sAkLU7JTGPbsaVfbzlbN-5">
          <mxGeometry relative="1" as="geometry">
            <mxPoint x="220" y="457" as="sourcePoint" />
            <mxPoint y="430" as="targetPoint" />
          </mxGeometry>
        </mxCell>
        <mxCell id="sAkLU7JTGPbsaVfbzlbN-7" style="edgeStyle=none;rounded=0;orthogonalLoop=1;jettySize=auto;html=1;entryX=1;entryY=0.5;entryDx=0;entryDy=0;strokeColor=default;align=center;verticalAlign=middle;fontFamily=Helvetica;fontSize=11;fontColor=default;labelBackgroundColor=default;endArrow=none;endFill=0;" edge="1" parent="1" source="hsYlX0iy2CaupKlMKDtS-4" target="sAkLU7JTGPbsaVfbzlbN-4">
          <mxGeometry relative="1" as="geometry">
            <mxPoint x="230" y="467" as="sourcePoint" />
            <mxPoint x="10" y="440" as="targetPoint" />
          </mxGeometry>
        </mxCell>
        <mxCell id="sAkLU7JTGPbsaVfbzlbN-8" value="Faltas" style="ellipse;whiteSpace=wrap;html=1;align=center;fontFamily=Helvetica;fontSize=11;fontColor=default;labelBackgroundColor=default;" vertex="1" parent="1">
          <mxGeometry x="520" y="660" width="70" height="40" as="geometry" />
        </mxCell>
        <mxCell id="sAkLU7JTGPbsaVfbzlbN-9" value="C. Amarelos" style="ellipse;whiteSpace=wrap;html=1;align=center;fontFamily=Helvetica;fontSize=11;fontColor=default;labelBackgroundColor=default;" vertex="1" parent="1">
          <mxGeometry x="590" y="640" width="70" height="40" as="geometry" />
        </mxCell>
        <mxCell id="sAkLU7JTGPbsaVfbzlbN-10" value="C. Vermelhos" style="ellipse;whiteSpace=wrap;html=1;align=center;fontFamily=Helvetica;fontSize=11;fontColor=default;labelBackgroundColor=default;" vertex="1" parent="1">
          <mxGeometry x="630" y="564" width="70" height="40" as="geometry" />
        </mxCell>
        <mxCell id="sAkLU7JTGPbsaVfbzlbN-11" style="edgeStyle=none;rounded=0;orthogonalLoop=1;jettySize=auto;html=1;strokeColor=default;align=center;verticalAlign=middle;fontFamily=Helvetica;fontSize=11;fontColor=default;labelBackgroundColor=default;endArrow=none;endFill=0;exitX=1.082;exitY=0.673;exitDx=0;exitDy=0;exitPerimeter=0;" edge="1" parent="1" source="sAkLU7JTGPbsaVfbzlbN-13">
          <mxGeometry relative="1" as="geometry">
            <mxPoint x="450" y="380" as="sourcePoint" />
            <mxPoint x="540" y="390" as="targetPoint" />
          </mxGeometry>
        </mxCell>
        <mxCell id="sAkLU7JTGPbsaVfbzlbN-13" value="num_jogos" style="ellipse;whiteSpace=wrap;html=1;align=center;dashed=1;fontFamily=Helvetica;fontSize=11;fontColor=default;labelBackgroundColor=default;" vertex="1" parent="1">
          <mxGeometry x="354" y="335" width="60" height="40" as="geometry" />
        </mxCell>
        <mxCell id="sAkLU7JTGPbsaVfbzlbN-16" value="num_jogos" style="ellipse;whiteSpace=wrap;html=1;align=center;dashed=1;fontFamily=Helvetica;fontSize=11;fontColor=default;labelBackgroundColor=default;" vertex="1" parent="1">
          <mxGeometry x="15" y="20" width="60" height="40" as="geometry" />
        </mxCell>
        <mxCell id="sAkLU7JTGPbsaVfbzlbN-17" style="rounded=0;orthogonalLoop=1;jettySize=auto;html=1;strokeColor=default;align=center;verticalAlign=middle;fontFamily=Helvetica;fontSize=11;fontColor=default;labelBackgroundColor=default;endArrow=none;endFill=0;exitX=1;exitY=0.5;exitDx=0;exitDy=0;entryX=0;entryY=0;entryDx=0;entryDy=0;" edge="1" parent="1" source="sAkLU7JTGPbsaVfbzlbN-16" target="hsYlX0iy2CaupKlMKDtS-1">
          <mxGeometry relative="1" as="geometry">
            <mxPoint x="107" y="8" as="sourcePoint" />
            <mxPoint x="191" y="95" as="targetPoint" />
          </mxGeometry>
        </mxCell>
        <mxCell id="sAkLU7JTGPbsaVfbzlbN-25" style="edgeStyle=none;rounded=0;orthogonalLoop=1;jettySize=auto;html=1;entryX=0;entryY=0.5;entryDx=0;entryDy=0;strokeColor=default;align=center;verticalAlign=middle;fontFamily=Helvetica;fontSize=11;fontColor=default;labelBackgroundColor=default;endArrow=none;endFill=0;" edge="1" parent="1" source="sAkLU7JTGPbsaVfbzlbN-19" target="hsYlX0iy2CaupKlMKDtS-51">
          <mxGeometry relative="1" as="geometry" />
        </mxCell>
        <mxCell id="sAkLU7JTGPbsaVfbzlbN-19" value="C. Amarelos" style="ellipse;whiteSpace=wrap;html=1;align=center;fontFamily=Helvetica;fontSize=11;fontColor=default;labelBackgroundColor=default;" vertex="1" parent="1">
          <mxGeometry x="-580" y="584" width="80" height="40" as="geometry" />
        </mxCell>
        <mxCell id="sAkLU7JTGPbsaVfbzlbN-26" style="edgeStyle=none;rounded=0;orthogonalLoop=1;jettySize=auto;html=1;entryX=0;entryY=0.75;entryDx=0;entryDy=0;strokeColor=default;align=center;verticalAlign=middle;fontFamily=Helvetica;fontSize=11;fontColor=default;labelBackgroundColor=default;endArrow=none;endFill=0;" edge="1" parent="1" source="sAkLU7JTGPbsaVfbzlbN-20" target="hsYlX0iy2CaupKlMKDtS-51">
          <mxGeometry relative="1" as="geometry" />
        </mxCell>
        <mxCell id="sAkLU7JTGPbsaVfbzlbN-20" value="C. Vermelhos" style="ellipse;whiteSpace=wrap;html=1;align=center;fontFamily=Helvetica;fontSize=11;fontColor=default;labelBackgroundColor=default;" vertex="1" parent="1">
          <mxGeometry x="-590" y="640" width="80" height="40" as="geometry" />
        </mxCell>
        <mxCell id="sAkLU7JTGPbsaVfbzlbN-24" style="edgeStyle=none;rounded=0;orthogonalLoop=1;jettySize=auto;html=1;strokeColor=default;align=center;verticalAlign=middle;fontFamily=Helvetica;fontSize=11;fontColor=default;labelBackgroundColor=default;endArrow=none;endFill=0;" edge="1" parent="1" source="sAkLU7JTGPbsaVfbzlbN-21" target="hsYlX0iy2CaupKlMKDtS-51">
          <mxGeometry relative="1" as="geometry" />
        </mxCell>
        <mxCell id="sAkLU7JTGPbsaVfbzlbN-21" value="Faltas" style="ellipse;whiteSpace=wrap;html=1;align=center;fontFamily=Helvetica;fontSize=11;fontColor=default;labelBackgroundColor=default;" vertex="1" parent="1">
          <mxGeometry x="-570" y="700" width="80" height="40" as="geometry" />
        </mxCell>
      </root>
    </mxGraphModel>
  </diagram>
</mxfile>
